<svg xmlns="http://www.w3.org/2000/svg" viewBox="0 0 156.63 69.82"><title>Asset 1</title><g id="d4d605c8-3b43-450f-8be2-ba812705869b" data-name="Layer 2"><g id="38035087-d069-4f5e-9438-80dfce630e0e" data-name="Layer 1"><path d="M61,41.83Q52.53,22.24,44.08,2.64l-.42-1H29c-.12.26-.45,1.19-.53,1.36-3.11,7.23-6.25,14.45-9.37,21.68L2.82,62.35,0,68.9H16.08l6.17-14.47H50.78L57,68.9H72.72c-.37-.89-.67-1.6-1-2.3Q66.38,54.22,61,41.83m-33.24-.56,8.64-19.91L45,41.27Z" fill="#eeb81c"/><rect x="141.97" y="1.67" width="14.66" height="67.32" fill="#eeb81c"/><path d="M114.48,34.77v9.34h0v0h4.58v8.41a1.78,1.78,0,0,1-1.44,1.51,69.28,69.28,0,0,1-8.19,2.11,19,19,0,0,1-15.32-3.89c-5.67-4.56-7.68-10.63-7.56-17.66A21.38,21.38,0,0,1,90.2,22.41C97,12.64,110.07,11.53,118.71,17c1.76,1.11,3.42,2.38,5.14,3.59l7.58-10.94a5.25,5.25,0,0,0-.39-.49c-.25-.23-.51-.46-.78-.67C120.8.84,110-1.54,98.25,1,87.31,3.27,79.47,9.86,74.46,19.78c-3.16,6.26-3.83,13-3,19.9C73,52.8,80.18,61.84,92.1,67.14c6.39,2.85,13.2,3.05,20.06,2.31,8.1-.88,15.21-3.92,20.94-9.82a3.72,3.72,0,0,0,.81-1.37V34.77Z" fill="#eeb81c"/></g></g></svg>