<?xml version="1.0" encoding="utf-8"?>
<!-- Generator: Adobe Illustrator 22.1.0, SVG Export Plug-In . SVG Version: 6.00 Build 0)  -->
<svg version="1.1" id="Layer_1" xmlns="http://www.w3.org/2000/svg" xmlns:xlink="http://www.w3.org/1999/xlink" x="0px" y="0px"
	 viewBox="0 0 55.3 89.9" enable-background="new 0 0 55.3 89.9" xml:space="preserve">
<title>Asset 19</title>
<g id="Layer_2_1_">
	<g id="Layer_1-2">
		<g>
			<defs>
				<path id="SVGID_1_" d="M1.5,62.2c0-14.5,11.7-26.2,26.2-26.2s26.2,11.7,26.2,26.2S42.1,88.4,27.7,88.4
					C13.2,88.4,1.5,76.7,1.5,62.2 M0,62.2c0,15.3,12.4,27.7,27.7,27.7s27.7-12.4,27.7-27.7S43,34.6,27.7,34.6C12.4,34.6,0,47,0,62.2
					"/>
			</defs>
			<clipPath id="SVGID_2_">
				<use xlink:href="#SVGID_1_"  overflow="visible"/>
			</clipPath>
			<g clip-path="url(#SVGID_2_)">
				
					<linearGradient id="SVGID_3_" gradientUnits="userSpaceOnUse" x1="-1664.04" y1="-1183.7676" x2="-1663.04" y2="-1183.7676" gradientTransform="matrix(55.33 0 0 55.33 92076.4453 65560.1016)">
					<stop  offset="0" style="stop-color:#EC7D4C"/>
					<stop  offset="1.000000e-02" style="stop-color:#EC7D4C"/>
					<stop  offset="0.8" style="stop-color:#F6B744"/>
					<stop  offset="1" style="stop-color:#F8C642"/>
				</linearGradient>
				<rect y="34.6" fill="url(#SVGID_3_)" width="55.3" height="55.3"/>
			</g>
		</g>
		<g opacity="0.23">
			<g>
				<defs>
					<rect id="SVGID_4_" x="13.8" y="51.6" width="27.5" height="27.5"/>
				</defs>
				<clipPath id="SVGID_5_">
					<use xlink:href="#SVGID_4_"  overflow="visible"/>
				</clipPath>
				<g clip-path="url(#SVGID_5_)">
					<path fill="#A3A19B" d="M41.3,65.3c0,7.6-6.2,13.7-13.8,13.8c-7.6,0-13.8-8.4-13.8-13.8c0-7.6,6.2-13.8,13.8-13.8
						S41.3,57.8,41.3,65.3"/>
				</g>
			</g>
		</g>
		<path fill="#3F3F3F" d="M41.9,62.6h-0.1c-0.1,0-0.2-0.1-0.2-0.2L35.9,52c-0.1-0.2,0-0.4,0.2-0.5c0,0,0,0,0,0l3.8-2
			c0.1,0,0.2,0,0.3,0c0.1,0,0.2,0.1,0.2,0.2l5.7,10.4c0.1,0.2,0,0.4-0.2,0.5l-3.8,2.1C42.1,62.7,42,62.7,41.9,62.6 M36.8,52l5.3,9.7
			l3.1-1.7l-5.3-9.7L36.8,52z"/>
		<path fill="#3F3F3F" d="M27.5,72.7c-0.7,0-1.4-0.4-1.8-1c-0.2-0.4-0.3-0.8-0.2-1.3l-0.5,0.3c-0.5,0.3-1,0.3-1.5,0.2
			c-1-0.3-1.6-1.2-1.4-2.2l-0.5,0.3c-1,0.5-2.2,0.2-2.7-0.8c-0.5-1-0.2-2.2,0.8-2.7l0.5-0.3c-0.4-0.2-0.7-0.5-0.9-0.9
			c-0.5-1-0.2-2.2,0.8-2.7c0,0,0,0,0,0l2.1-1.2c0.2-0.1,0.4,0,0.5,0.2c0,0,0,0,0,0c0.1,0.2,0,0.4-0.2,0.5l-2.1,1.1
			c-0.6,0.3-0.8,1.1-0.4,1.6c0.2,0.3,0.4,0.5,0.7,0.6c0.3,0.1,0.6,0.1,0.9-0.1l5.2-2.8c0.2-0.1,0.4,0,0.5,0.2c0.1,0.2,0,0.4-0.1,0.5
			c0,0,0,0,0,0L20.1,66c-0.3,0.2-0.5,0.4-0.6,0.7c-0.1,0.3-0.1,0.6,0.1,0.9c0.2,0.3,0.4,0.5,0.7,0.6c0.3,0.1,0.6,0.1,0.9-0.1l1.9-1
			l0,0l5.2-2.8c0.2-0.1,0.4,0,0.5,0.2c0.1,0.2,0,0.4-0.2,0.6l-5.2,2.8c-0.6,0.3-0.8,1-0.5,1.6c0,0,0,0,0,0c0.2,0.3,0.4,0.5,0.7,0.6
			c0.3,0.1,0.6,0.1,0.9-0.1l5.2-2.8c0.2-0.1,0.4,0,0.5,0.2c0,0,0,0,0,0c0.1,0.2,0,0.4-0.2,0.6L27,69.6c-0.6,0.3-0.8,1.1-0.5,1.6
			c0,0,0,0,0,0c0.3,0.6,1.1,0.8,1.6,0.5l9.5-5.2c0.8-0.5,1.5-1.1,2.1-1.9l1.7-2.5L35.9,52c-0.1-0.2,0-0.4,0.2-0.5
			c0.2-0.1,0.4,0,0.5,0.2L42.3,62c0.1,0.1,0.1,0.3,0,0.4l-1.9,2.7c-0.6,0.9-1.4,1.6-2.3,2.1l-9.5,5.2C28.2,72.6,27.9,72.7,27.5,72.7
			"/>
		<path fill="#3F3F3F" d="M15.4,63.6h-0.1l-4.2-1c-0.2-0.1-0.3-0.3-0.3-0.5l2.8-11.5c0-0.1,0.1-0.2,0.2-0.2c0.1-0.1,0.2-0.1,0.3,0
			l4.2,1c0.1,0,0.2,0.1,0.3,0.2c0.1,0.1,0.1,0.2,0,0.3l-2.9,11.5c0,0.1-0.1,0.2-0.2,0.3C15.6,63.5,15.5,63.6,15.4,63.6 M11.8,61.8
			l3.4,0.8L17.8,52l-3.4-0.8L11.8,61.8z"/>
		<path fill="#3F3F3F" d="M18,65.7c-0.1,0-0.2,0-0.3-0.1l-2.5-2.1c-0.1-0.1-0.2-0.3-0.1-0.4L18,51.6c0-0.1,0.2-0.3,0.3-0.3l3.2-0.7
			c1-0.2,2.1-0.2,3.1,0l8.4,2.1c1.1,0.2,1.8,1.3,1.5,2.4c-0.1,0.5-0.5,1-1,1.3c-0.5,0.3-1,0.4-1.5,0.2l-4.3-1.1
			c-0.8,2.3-3.2,3.6-5.6,3l-1-0.3c-0.2,0-0.4-0.3-0.3-0.5c0,0,0,0,0,0c0.1-0.2,0.3-0.3,0.5-0.3c0,0,0,0,0,0l1,0.3
			c1,0.3,2.1,0.1,3-0.5c0.9-0.5,1.5-1.4,1.8-2.4c0-0.1,0.1-0.2,0.2-0.3c0.1,0,0.2,0,0.3,0l4.7,1.2c0.3,0.1,0.6,0,0.9-0.1
			c0.3-0.2,0.5-0.4,0.5-0.7c0.2-0.6-0.2-1.3-0.9-1.5c0,0,0,0,0,0l-8.5-2.1c-0.9-0.2-1.9-0.2-2.8,0l-3,0.7l-2.7,11l2.3,2
			c0.2,0.1,0.2,0.4,0,0.6C18.2,65.7,18.1,65.7,18,65.7"/>
		<g>
			<defs>
				<polygon id="SVGID_6_" points="26,0 26,21.6 18.4,14 16.8,14 26.6,23.8 36.4,14 34.8,14 27.2,21.6 27.2,0 				"/>
			</defs>
			<clipPath id="SVGID_7_">
				<use xlink:href="#SVGID_6_"  overflow="visible"/>
			</clipPath>
			<g clip-path="url(#SVGID_7_)">
				
					<linearGradient id="SVGID_8_" gradientUnits="userSpaceOnUse" x1="-1642.5266" y1="-1172.7174" x2="-1641.5266" y2="-1172.7174" gradientTransform="matrix(19.62 0 0 19.62 32245.8301 23020.6211)">
					<stop  offset="0" style="stop-color:#EC7D4C"/>
					<stop  offset="1.000000e-02" style="stop-color:#EC7D4C"/>
					<stop  offset="0.8" style="stop-color:#F6B744"/>
					<stop  offset="1" style="stop-color:#F8C642"/>
				</linearGradient>
				<rect x="16.8" fill="url(#SVGID_8_)" width="19.6" height="23.8"/>
			</g>
		</g>
	</g>
</g>
</svg>
