<svg xmlns="http://www.w3.org/2000/svg" xmlns:xlink="http://www.w3.org/1999/xlink" viewBox="0 0 55.33 89.91"><defs><style>.cls-1{fill:none;}.cls-2{clip-path:url(#clip-path);}.cls-3{fill:url(#linear-gradient);}.cls-4{opacity:0.23;}.cls-5{clip-path:url(#clip-path-2);}.cls-6{fill:#a3a19b;}.cls-7{fill:#3f3f3f;}.cls-8{fill:#fff;}.cls-9{clip-path:url(#clip-path-3);}.cls-10{clip-path:url(#clip-path-4);}.cls-11{fill:url(#linear-gradient-2);}</style><clipPath id="clip-path" transform="translate(0 0)"><path class="cls-1" d="M1.5,62.24A26.17,26.17,0,1,1,27.67,88.41,26.2,26.2,0,0,1,1.5,62.24m-1.5,0A27.67,27.67,0,1,0,27.67,34.57,27.7,27.7,0,0,0,0,62.24"/></clipPath><linearGradient id="linear-gradient" x1="-545.39" y1="1619.73" x2="-544.39" y2="1619.73" gradientTransform="matrix(55.34, 0, 0, -55.34, 30179.15, 89690.65)" gradientUnits="userSpaceOnUse"><stop offset="0" stop-color="#ec7d4c"/><stop offset="0.01" stop-color="#ec7d4c"/><stop offset="0.8" stop-color="#f6b744"/><stop offset="1" stop-color="#f8c642"/></linearGradient><clipPath id="clip-path-2" transform="translate(0 0)"><rect class="cls-1" x="26.41" y="61.8" width="8.73" height="8.49"/></clipPath><clipPath id="clip-path-3" transform="translate(0 0)"><rect class="cls-1" x="7.35" y="46.57" width="22.86" height="22.86"/></clipPath><clipPath id="clip-path-4" transform="translate(0 0)"><polygon class="cls-1" points="27.39 0 27.39 21.62 19.77 13.99 18.14 13.99 27.95 23.81 37.77 13.99 36.14 13.99 28.51 21.62 28.51 0 27.39 0"/></clipPath><linearGradient id="linear-gradient-2" x1="-545.39" y1="1619.73" x2="-544.39" y2="1619.73" gradientTransform="matrix(19.62, 0, 0, -19.62, 10720.03, 31795.22)" xlink:href="#linear-gradient"/></defs><title>contact</title><g id="Layer_2" data-name="Layer 2"><g id="Layer_1-2" data-name="Layer 1"><g class="cls-2"><rect class="cls-3" y="34.57" width="55.33" height="55.34"/></g><g class="cls-4"><g class="cls-5"><path class="cls-6" d="M34.37,61.8H31.54v3.34a.76.76,0,0,1-.77.77H26.41v1.54a.76.76,0,0,0,.77.77h4.64l1.31,2A.26.26,0,0,0,33.6,70V68.22h.77a.76.76,0,0,0,.77-.77V62.57a.77.77,0,0,0-.77-.77" transform="translate(0 0)"/></g></g><path class="cls-7" d="M33.34,70.62a.58.58,0,0,1-.49-.26l-1.21-1.81H27.18a1.11,1.11,0,0,1-1.11-1.11V65.9h.67v1.54a.44.44,0,0,0,.44.44H32l1.26,1.89V67.88h1.11a.44.44,0,0,0,.43-.44V62.56a.43.43,0,0,0-.43-.43H31.8v-.68h2.57a1.11,1.11,0,0,1,1.11,1.11v4.88a1.11,1.11,0,0,1-1.11,1.11h-.43V70a.58.58,0,0,1-.42.56.57.57,0,0,1-.18,0" transform="translate(0 0)"/><path class="cls-8" d="M20,59.23v5.91a.77.77,0,0,0,.77.77h1v2.78a.25.25,0,0,0,.45.16l2.44-2.94h6.1a.76.76,0,0,0,.77-.77V59.23a.76.76,0,0,0-.77-.77h-10a.77.77,0,0,0-.77.77" transform="translate(0 0)"/><path class="cls-7" d="M22,69.28a.45.45,0,0,1-.2,0,.58.58,0,0,1-.4-.56V66.24h-.69a1.1,1.1,0,0,1-1.1-1.11v-5.9a1.1,1.1,0,0,1,1.1-1.11h10a1.11,1.11,0,0,1,1.11,1.11v5.9a1.11,1.11,0,0,1-1.11,1.11H24.82l-2.33,2.82a.58.58,0,0,1-.45.22M20.75,58.79a.44.44,0,0,0-.43.44v5.9a.44.44,0,0,0,.43.44h1.37v2.89l2.39-2.89h6.26a.44.44,0,0,0,.44-.44v-5.9a.44.44,0,0,0-.44-.44Z" transform="translate(0 0)"/><path class="cls-7" d="M26.74,65.14h-.67V62.57a1.11,1.11,0,0,1,1.11-1.11h3.59v.68H27.18a.44.44,0,0,0-.44.43Z" transform="translate(0 0)"/><path class="cls-7" d="M43,73.68H13.61V54.16H43ZM14.28,73h28V54.83h-28Z" transform="translate(0 0)"/><path class="cls-7" d="M33.16,77.41H23.45a.34.34,0,1,1,0-.67h9.71a.34.34,0,0,1,0,.67" transform="translate(0 0)"/><g class="cls-4"><g class="cls-9"><path class="cls-6" d="M30.21,58A11.43,11.43,0,0,1,18.78,69.43c-6.32,0-11.43-7-11.43-11.43a11.43,11.43,0,0,1,22.86,0" transform="translate(0 0)"/></g></g><g class="cls-10"><rect class="cls-11" x="18.14" width="19.62" height="23.81"/></g></g></g></svg>