<?xml version="1.0" encoding="utf-8"?>
<!-- Generator: Adobe Illustrator 22.1.0, SVG Export Plug-In . SVG Version: 6.00 Build 0)  -->
<svg version="1.1" id="Layer_1" xmlns="http://www.w3.org/2000/svg" xmlns:xlink="http://www.w3.org/1999/xlink" x="0px" y="0px"
	 viewBox="0 0 55.3 89.9" enable-background="new 0 0 55.3 89.9" xml:space="preserve">
<title>Asset 17</title>
<g id="Layer_2_1_">
	<g id="Layer_1-2">
		<g>
			<defs>
				<path id="SVGID_1_" d="M1.5,62.2c0-14.5,11.7-26.2,26.2-26.2s26.2,11.7,26.2,26.2S42.1,88.4,27.7,88.4
					C13.2,88.4,1.5,76.7,1.5,62.2 M0,62.2c0,15.3,12.4,27.7,27.7,27.7s27.7-12.4,27.7-27.7S43,34.6,27.7,34.6C12.4,34.6,0,47,0,62.2
					"/>
			</defs>
			<clipPath id="SVGID_2_">
				<use xlink:href="#SVGID_1_"  overflow="visible"/>
			</clipPath>
			<g clip-path="url(#SVGID_2_)">
				
					<linearGradient id="SVGID_3_" gradientUnits="userSpaceOnUse" x1="-1346.7722" y1="-1183.4877" x2="-1345.7722" y2="-1183.4877" gradientTransform="matrix(55.34 0 0 55.34 74527.3984 65556.4453)">
					<stop  offset="0" style="stop-color:#EC7D4C"/>
					<stop  offset="1.000000e-02" style="stop-color:#EC7D4C"/>
					<stop  offset="0.8" style="stop-color:#F6B744"/>
					<stop  offset="1" style="stop-color:#F8C642"/>
				</linearGradient>
				<rect y="34.6" fill="url(#SVGID_3_)" width="55.3" height="55.3"/>
			</g>
		</g>
		<g opacity="0.23">
			<g>
				<defs>
					<rect id="SVGID_4_" x="11.2" y="44.4" width="22.9" height="22.9"/>
				</defs>
				<clipPath id="SVGID_5_">
					<use xlink:href="#SVGID_4_"  overflow="visible"/>
				</clipPath>
				<g clip-path="url(#SVGID_5_)">
					<path fill="#A3A19B" d="M34.1,55.8c0,6.3-5.1,11.4-11.4,11.4c-6.3,0-11.4-7-11.4-11.4c0-6.3,5.1-11.4,11.4-11.4
						C29,44.4,34.1,49.5,34.1,55.8"/>
				</g>
			</g>
		</g>
		<path fill="#282828" d="M34,49.6H21.3c-1.1,0-1.9,0.9-1.9,2V75c0,1.1,0.9,2,1.9,2H34c1.1,0,2-0.9,2-2V51.6
			C36,50.5,35.2,49.6,34,49.6 M35.4,75c0,0.8-0.6,1.4-1.3,1.4c0,0,0,0,0,0H21.3c-0.8,0-1.4-0.6-1.3-1.4c0,0,0,0,0,0V51.6
			c0-0.8,0.6-1.4,1.3-1.4c0,0,0,0,0,0H34c0.8,0,1.4,0.6,1.3,1.4c0,0,0,0,0,0V75z"/>
		<rect x="19.6" y="52.5" fill="#282828" width="16.1" height="0.6"/>
		<rect x="19.6" y="73.5" fill="#282828" width="16.1" height="0.6"/>
		<path fill="#282828" d="M24.1,66.1c-0.3,0-0.5,0.2-0.5,0.5c0,0,0,0,0,0c0,0.3,0.3,0.5,0.6,0.5c0.2,0,0.4-0.2,0.5-0.5
			C24.6,66.4,24.4,66.1,24.1,66.1"/>
		<path fill="#282828" d="M24.1,65.1c-0.9,0-1.6,0.7-1.6,1.6c0.1,0.6,0.3,1.2,0.7,1.7c0.3,0.5,0.6,0.9,0.7,1c0,0.1,0.1,0.1,0.2,0.1
			c0.1,0,0.1,0,0.2-0.1c0,0,0.4-0.5,0.7-1c0.4-0.5,0.6-1.1,0.7-1.7C25.7,65.8,24.9,65.1,24.1,65.1 M24,69.2L24,69.2 M24.7,68.2
			c-0.2,0.4-0.5,0.7-0.6,0.8c-0.1-0.2-0.4-0.5-0.6-0.8c-0.4-0.4-0.6-1-0.7-1.6c0.1-0.7,0.7-1.2,1.3-1.1c0.6,0.1,1.1,0.5,1.1,1.1
			C25.2,67.2,25,67.7,24.7,68.2"/>
		<path fill="#282828" d="M31.2,60.8L31.2,60.8c-0.2,0-0.3,0.2-0.3,0.2s-0.1,0.3-0.2,0.4s-0.2,0.1-0.8-0.5c-0.5-0.6-1.3-0.8-2-0.6
			c-0.8,0.3-1.4,1-1.5,1.9c0.1,1.2,0.4,2.4,0.9,3.5c0.5,1.3,1,2.5,0.5,3c-0.8,0.7-1.9,0.1-2.3-0.3l0,0c-0.1-0.1-0.2-0.1-0.3,0l0,0
			c-0.1,0.1,0,0.3,0.1,0.4c0.6,0.4,1.3,0.7,2,0.7c0.4,0,0.7-0.2,1-0.5c0.8-0.7,0.2-2.1-0.4-3.6c-0.5-1-0.8-2.1-0.9-3.3
			c0.1-0.6,0.6-1.2,1.2-1.4c0.5-0.2,1.1,0,1.5,0.4c0.4,0.4,0.9,0.8,1.4,0.7c0.3-0.2,0.5-0.5,0.5-0.8l0,0
			C31.5,61,31.5,60.8,31.2,60.8"/>
		<path fill="#282828" d="M31.3,57.3c-0.3,0-0.5,0.2-0.5,0.5c0,0.3,0.2,0.5,0.5,0.5c0.3,0,0.5-0.2,0.5-0.5
			C31.8,57.5,31.5,57.3,31.3,57.3"/>
		<path fill="#282828" d="M31.3,56.2c-0.9,0-1.6,0.7-1.6,1.6c0.1,0.6,0.3,1.2,0.7,1.7c0.2,0.3,0.4,0.7,0.7,1c0.1,0.1,0.2,0.1,0.3,0
			c0,0,0,0,0,0c0.2-0.3,0.5-0.7,0.7-1c0.4-0.5,0.6-1.1,0.7-1.7C32.8,56.9,32.1,56.2,31.3,56.2 M31.2,60.3L31.2,60.3 M31.8,59.3
			c-0.2,0.4-0.5,0.7-0.6,0.8c-0.1-0.2-0.4-0.5-0.6-0.8c-0.3-0.4-0.6-1-0.7-1.5c0-0.7,0.6-1.2,1.2-1.2c0.7,0,1.2,0.6,1.2,1.2
			C32.4,58.4,32.2,58.9,31.8,59.3"/>
		<g>
			<defs>
				<polygon id="SVGID_6_" points="27.1,0 27.1,21.6 19.5,14 17.9,14 27.7,23.8 37.5,14 35.8,14 28.2,21.6 28.2,0 				"/>
			</defs>
			<clipPath id="SVGID_7_">
				<use xlink:href="#SVGID_6_"  overflow="visible"/>
			</clipPath>
			<g clip-path="url(#SVGID_7_)">
				
					<linearGradient id="SVGID_8_" gradientUnits="userSpaceOnUse" x1="-1325.2567" y1="-1172.7174" x2="-1324.2666" y2="-1172.7174" gradientTransform="matrix(19.62 0 0 19.62 26021.3203 23020.6211)">
					<stop  offset="0" style="stop-color:#EC7D4C"/>
					<stop  offset="1.000000e-02" style="stop-color:#EC7D4C"/>
					<stop  offset="0.8" style="stop-color:#F6B744"/>
					<stop  offset="1" style="stop-color:#F8C642"/>
				</linearGradient>
				<rect x="17.9" fill="url(#SVGID_8_)" width="19.6" height="23.8"/>
			</g>
		</g>
	</g>
</g>
</svg>
