<?xml version="1.0" encoding="utf-8"?>
<!-- Generator: Adobe Illustrator 22.1.0, SVG Export Plug-In . SVG Version: 6.00 Build 0)  -->
<svg version="1.1" id="Layer_1" xmlns="http://www.w3.org/2000/svg" xmlns:xlink="http://www.w3.org/1999/xlink" x="0px" y="0px"
	 viewBox="0 0 47 21" enable-background="new 0 0 47 21" xml:space="preserve">
<title>icon-agi</title>
<g id="Layer_2_1_">
	<g id="Layer_1-2">
		<path fill="#EEB81C" d="M18.3,12.6c-1.7-3.9-3.4-7.8-5.1-11.8l-0.1-0.3H8.7c0,0.1-0.1,0.4-0.2,0.4C7.6,3.1,6.7,5.2,5.7,7.4
			L0.9,18.7l-0.9,2h4.8l1.8-4.4h8.6l1.9,4.4h4.7c-0.1-0.3-0.2-0.5-0.3-0.7L18.3,12.6 M8.3,12.4l2.6-6l2.6,6H8.3z"/>
		<rect x="42.6" y="0.5" fill="#EEB81C" width="4.4" height="20.2"/>
		<path fill="#EEB81C" d="M34.4,10.4v2.8h1.4v2.5c0,0.2-0.2,0.4-0.4,0.4c-0.8,0.3-1.6,0.5-2.5,0.6c-1.6,0.3-3.3-0.1-4.6-1.2
			c-1.6-1.3-2.4-3.3-2.3-5.3c0-1.3,0.4-2.6,1.1-3.7c2-2.7,5.7-3.4,8.5-1.6c0.5,0.3,1,0.7,1.5,1.1c0.8-1.1,1.5-2.2,2.3-3.3l-0.1-0.1
			l-0.2-0.2c-2.7-2.2-6.2-3.1-9.6-2.3c-3.1,0.6-5.8,2.7-7.1,5.6c-0.9,1.9-1.2,4-0.9,6c0.3,3.7,2.7,6.9,6.2,8.2c1.9,0.8,4,1,6,0.7
			c2.4-0.2,4.7-1.2,6.3-3c0.1-0.1,0.2-0.3,0.3-0.4v-7L34.4,10.4z"/>
	</g>
</g>
</svg>
