<?xml version="1.0" encoding="utf-8"?>
<!-- Generator: Adobe Illustrator 22.1.0, SVG Export Plug-In . SVG Version: 6.00 Build 0)  -->
<svg version="1.1" id="Layer_1" xmlns="http://www.w3.org/2000/svg" xmlns:xlink="http://www.w3.org/1999/xlink" x="0px" y="0px"
	 viewBox="0 0 55.3 89.9" enable-background="new 0 0 55.3 89.9" xml:space="preserve">
<title>Asset 18</title>
<g id="Layer_2_1_">
	<g id="Layer_1-2">
		<g>
			<defs>
				<path id="SVGID_1_" d="M1.5,62.2c0-14.5,11.7-26.2,26.2-26.2s26.2,11.7,26.2,26.2S42.1,88.4,27.7,88.4
					C13.2,88.4,1.5,76.7,1.5,62.2 M0,62.2c0,15.3,12.4,27.7,27.7,27.7s27.7-12.4,27.7-27.7S43,34.6,27.7,34.6C12.4,34.6,0,47,0,62.2
					"/>
			</defs>
			<clipPath id="SVGID_2_">
				<use xlink:href="#SVGID_1_"  overflow="visible"/>
			</clipPath>
			<g clip-path="url(#SVGID_2_)">
				
					<linearGradient id="SVGID_3_" gradientUnits="userSpaceOnUse" x1="-1506.3622" y1="-1183.4877" x2="-1505.3622" y2="-1183.4877" gradientTransform="matrix(55.34 0 0 55.34 83357.9375 65556.4453)">
					<stop  offset="0" style="stop-color:#EC7D4C"/>
					<stop  offset="1.000000e-02" style="stop-color:#EC7D4C"/>
					<stop  offset="0.8" style="stop-color:#F6B744"/>
					<stop  offset="1" style="stop-color:#F8C642"/>
				</linearGradient>
				<rect y="34.6" fill="url(#SVGID_3_)" width="55.3" height="55.3"/>
			</g>
		</g>
		<g opacity="0.23">
			<g>
				<defs>
					<rect id="SVGID_4_" x="10" y="44.4" width="24.7" height="24.7"/>
				</defs>
				<clipPath id="SVGID_5_">
					<use xlink:href="#SVGID_4_"  overflow="visible"/>
				</clipPath>
				<g clip-path="url(#SVGID_5_)">
					<path fill="#A3A19B" d="M34.7,56.7c0,6.8-5.5,12.4-12.4,12.4c-6.8,0-12.3-7.5-12.3-12.4c0.2-6.8,5.9-12.2,12.7-12
						C29.3,44.9,34.5,50.2,34.7,56.7"/>
				</g>
			</g>
		</g>
		<path fill="#FFFFFF" d="M35.8,51.3v-1.1c0-1.3-1-2.3-2.3-2.3H22c-1.3,0-2.3,1-2.3,2.3v1.2L35.8,51.3z"/>
		<path fill="#3F3F3F" d="M36.2,51.7H19.4v-1.5c0-1.5,1.2-2.7,2.7-2.7h11.5c1.5,0,2.7,1.2,2.7,2.7V51.7z M20.1,50.9h15.4v-0.8
			c0-1.1-0.9-1.9-1.9-1.9c0,0,0,0,0,0H22c-1.1,0-1.9,0.9-1.9,1.9L20.1,50.9z"/>
		<path fill="#FFFFFF" d="M19.8,71.4v2.3c0.1,1.2,1.1,2.2,2.3,2.3h11.5c1.2-0.1,2.2-1.1,2.3-2.3v-2.3H19.8z"/>
		<path fill="#3F3F3F" d="M22,76.4c-1.4-0.1-2.5-1.2-2.7-2.7v-2.7h16.8v2.7c-0.1,1.4-1.3,2.5-2.7,2.7L22,76.4z M20.1,71.8v1.9
			c0.1,1,0.9,1.8,1.9,1.9h11.5c1-0.1,1.8-0.9,1.9-1.9v-1.9H20.1z"/>
		<rect x="19.8" y="51.3" fill="#FFFFFF" width="16.1" height="20.1"/>
		<polygon fill="#3F3F3F" points="36.2,71.8 19.4,71.8 19.4,62.8 20.1,62.8 20.1,71.1 35.5,71.1 35.5,51.7 20.1,51.7 20.1,59.3 
			19.4,59.3 19.4,50.9 36.2,50.9 		"/>
		<rect x="26.6" y="73.3" fill="#3F3F3F" width="2.9" height="0.7"/>
		<path fill="#3F3F3F" d="M42,67.4h-0.7V53.6c0-1.1-0.9-1.9-1.9-1.9h-1.8v-0.7h1.7c1.5,0,2.7,1.2,2.7,2.7c0,0,0,0,0,0V67.4z"/>
		<polygon fill="#3F3F3F" points="41.6,67.9 39,65.3 39.6,64.8 41.6,66.9 43.6,64.8 44.2,65.3 		"/>
		<path fill="#3F3F3F" d="M14.9,58.2h-0.7v-4.6c0-1.5,1.2-2.7,2.7-2.7H18v0.7h-1.1c-1.1,0-1.9,0.9-1.9,1.9L14.9,58.2z"/>
		<polygon fill="#3F3F3F" points="14.6,58.7 12,56.1 12.5,55.6 14.6,57.7 16.6,55.6 17.1,56.1 		"/>
		<line fill="none" x1="41.6" y1="69.1" x2="41.6" y2="70.3"/>
		<line fill="none" x1="41.6" y1="71.4" x2="41.6" y2="72.6"/>
		<rect x="41.2" y="68.9" fill="#3F3F3F" width="0.7" height="1.5"/>
		<rect x="41.2" y="71.2" fill="#3F3F3F" width="0.7" height="1.5"/>
		<path fill="#3F3F3F" d="M25.5,80.4h-5.8c-3.1,0-5.5-2.5-5.5-5.5v-4h0.7v4c0,2.7,2.2,4.8,4.8,4.8h5.8V80.4z"/>
		<path fill="#3F3F3F" d="M36.4,80.4h-5.2v-0.7h5.2c2.7,0,4.8-2.2,4.8-4.8v-1.2H42v1.2C42,77.9,39.5,80.4,36.4,80.4"/>
		<polygon fill="#3F3F3F" points="26.3,63.6 25.8,63.1 27.9,61.1 25.8,59 26.3,58.5 28.9,61.1 		"/>
		<path fill="#3F3F3F" d="M14.9,65.1h-0.7v-1.7c0-1.5,1.2-2.7,2.7-2.7h11.5v0.7H16.9c-1.1,0-1.9,0.9-1.9,1.9L14.9,65.1z"/>
		<rect x="14.2" y="66.2" fill="#3F3F3F" width="0.7" height="1.2"/>
		<rect x="14.2" y="68.5" fill="#3F3F3F" width="0.7" height="1.2"/>
		<rect x="26.6" y="79.7" fill="#3F3F3F" width="1.1" height="0.7"/>
		<rect x="29" y="79.7" fill="#3F3F3F" width="1.1" height="0.7"/>
		<g>
			<defs>
				<polygon id="SVGID_6_" points="26.4,0 26.4,21.6 18.7,14 17.1,14 26.9,23.8 36.7,14 35.1,14 27.5,21.6 27.5,0 				"/>
			</defs>
			<clipPath id="SVGID_7_">
				<use xlink:href="#SVGID_6_"  overflow="visible"/>
			</clipPath>
			<g clip-path="url(#SVGID_7_)">
				
					<linearGradient id="SVGID_8_" gradientUnits="userSpaceOnUse" x1="-1484.8467" y1="-1172.7174" x2="-1483.8467" y2="-1172.7174" gradientTransform="matrix(19.62 0 0 19.62 29151.9805 23020.6211)">
					<stop  offset="0" style="stop-color:#EC7D4C"/>
					<stop  offset="1.000000e-02" style="stop-color:#EC7D4C"/>
					<stop  offset="0.8" style="stop-color:#F6B744"/>
					<stop  offset="1" style="stop-color:#F8C642"/>
				</linearGradient>
				<rect x="17.1" fill="url(#SVGID_8_)" width="19.6" height="23.8"/>
			</g>
		</g>
	</g>
</g>
</svg>
