<?xml version="1.0" encoding="utf-8"?>
<!-- Generator: Adobe Illustrator 22.1.0, SVG Export Plug-In . SVG Version: 6.00 Build 0)  -->
<svg version="1.1" id="Layer_1" xmlns="http://www.w3.org/2000/svg" xmlns:xlink="http://www.w3.org/1999/xlink" x="0px" y="0px"
	 viewBox="0 0 55.3 89.9" enable-background="new 0 0 55.3 89.9" xml:space="preserve">
<title>Asset 15</title>
<g id="Layer_2_1_">
	<g id="Layer_1-2">
		<g>
			<g>
				<defs>
					<path id="SVGID_1_" d="M1.5,62.2C1.5,47.7,13.2,36,27.7,36s26.2,11.7,26.2,26.2S42.1,88.4,27.7,88.4
						C13.2,88.4,1.5,76.7,1.5,62.2 M0,62.2c0,15.3,12.4,27.7,27.7,27.7s27.7-12.4,27.7-27.7S43,34.6,27.7,34.6S0,47,0,62.2"/>
				</defs>
				<clipPath id="SVGID_2_">
					<use xlink:href="#SVGID_1_"  overflow="visible"/>
				</clipPath>
				<g clip-path="url(#SVGID_2_)">
					
						<linearGradient id="SVGID_3_" gradientUnits="userSpaceOnUse" x1="-1670.5043" y1="1607.3798" x2="-1669.505" y2="1607.3798" gradientTransform="matrix(55.34 0 0 -55.34 92443.9297 89014.6484)">
						<stop  offset="0" style="stop-color:#EC7D4C"/>
						<stop  offset="1.000000e-02" style="stop-color:#EC7D4C"/>
						<stop  offset="0.8" style="stop-color:#F6B744"/>
						<stop  offset="1" style="stop-color:#F8C642"/>
					</linearGradient>
					<rect y="34.6" fill="url(#SVGID_3_)" width="55.3" height="55.3"/>
				</g>
			</g>
		</g>
		<g opacity="0.23">
			<g>
				<g>
					<defs>
						<rect id="SVGID_4_" x="13" y="49.6" width="25.3" height="25.3"/>
					</defs>
					<clipPath id="SVGID_5_">
						<use xlink:href="#SVGID_4_"  overflow="visible"/>
					</clipPath>
					<g clip-path="url(#SVGID_5_)">
						<path fill="#A3A19B" d="M38.3,62.2c0,7-5.7,12.7-12.7,12.7s-12.7-5.7-12.7-12.6c0-7,5.7-12.7,12.7-12.7l0,0
							C32.7,49.6,38.3,55.3,38.3,62.2L38.3,62.2"/>
					</g>
				</g>
			</g>
		</g>
		<path fill="#FFFFFF" d="M24.2,62.1c0-10.5,3.6-14.2,6.3-16c1.6,0.6,3.1,1.6,4.3,2.9c-0.2,2.2-1.1,4.2-2.5,5.9
			c-0.9-0.1-1.7-0.3-2.5-0.5c-1.1,2.5-1.7,5.1-1.8,7.8c0.1,2.7,0.7,5.4,1.8,7.8c0.8-0.3,1.7-0.4,2.5-0.5c1.4,1.6,2.3,3.7,2.5,5.8
			c-1.2,1.3-2.7,2.2-4.3,2.9C27.8,76.3,24.2,72.7,24.2,62.1"/>
		<path fill="#3F3F3F" d="M30.5,78.6l-0.2-0.1c-2.8-1.9-6.5-5.7-6.5-16.3s3.7-14.4,6.5-16.4l0.2-0.1l0.2,0.1c1.7,0.7,3.2,1.7,4.4,3
			l0.1,0.1V49c-0.2,2.2-1.2,4.3-2.6,6l-0.1,0.1h-0.3c-0.7-0.1-1.4-0.2-2.1-0.4c-1,2.3-1.5,4.8-1.7,7.4c0.1,2.5,0.7,5,1.7,7.4
			c0.7-0.2,1.4-0.3,2.2-0.4h0.3l0.1,0.1c1.5,1.7,2.4,3.8,2.6,6.1v0.2l-0.1,0.1c-1.2,1.3-2.7,2.3-4.4,3
			C30.8,78.6,30.5,78.6,30.5,78.6z M30.6,46.5c-2.6,1.8-6,5.5-6,15.6s3.4,13.8,6,15.6c1.4-0.6,2.7-1.5,3.8-2.6c-0.2-2-1-3.8-2.3-5.3
			c-0.8,0.1-1.5,0.2-2.3,0.5l-0.3,0.1l-0.1-0.3c-1.1-2.5-1.8-5.2-1.9-8c0.1-2.8,0.8-5.5,1.9-8l0.1-0.3l0.3,0.1
			c0.7,0.2,1.5,0.4,2.3,0.5c1.3-1.5,2-3.4,2.3-5.3C33.3,47.9,32,47.1,30.6,46.5"/>
		<path fill="#FFFFFF" d="M29.6,56.5h-6.2l1.1-2.9h-1.1c-1.5,0.1-2.9,0.9-3.8,2.1c-0.5,0.7-1.3,1-2.1,0.8h-3.3v9.8H18
			c0.9,0,2.6,1.7,4.4,1.7h7.2c1.6,0,2-6.2,2-9.4C31.6,57.5,30.7,56.5,29.6,56.5"/>
		<path fill="#3F3F3F" d="M29.5,68.4h-7.2c-1.1-0.1-2.2-0.5-3.1-1.1c-0.4-0.3-0.8-0.5-1.3-0.6h-4.2V56.1h3.7h0.4
			c0.5,0,0.8,0.1,1.5-0.7c1-1.3,2.5-2.1,4.1-2.2h1.1V54h-1.1c-1.4,0.1-2.7,0.9-3.5,2c-0.4,0.7-1.3,1.1-2.1,0.9h-0.3h-2.9v9H18
			c0.6,0.1,1.2,0.3,1.6,0.7c0.8,0.6,1.7,0.9,2.7,1h7.2c0.5,0,1.5-1.9,1.7-9c0-0.5-0.2-0.9-0.5-1.2s-0.7-0.5-1.2-0.5h-6.2v-0.7h6.2
			c0.6,0,1.3,0.3,1.7,0.7c0.5,0.5,0.7,1.1,0.7,1.8C31.7,68.4,30.1,68.4,29.5,68.4"/>
		<rect x="11.3" y="55.3" fill="#FFFFFF" width="4" height="12.6"/>
		<polygon fill="#3F3F3F" points="15.7,68.4 11.3,68.4 11.3,67.6 14.9,67.6 14.9,55.7 11.3,55.7 11.3,55 15.7,55 		"/>
		<rect x="12.6" y="57.1" fill="#3F3F3F" width="0.7" height="2.3"/>
		<path fill="#3F3F3F" d="M36.3,68.2l-0.6-0.6c2.9-2.9,2.9-7.7,0-10.6l0.6-0.6C39.6,59.6,39.6,64.9,36.3,68.2"/>
		<path fill="#3F3F3F" d="M38.8,70.7l-0.6-0.6c4.3-4.3,4.3-11.3,0-15.6l0,0l0.6-0.6C43.5,58.5,43.5,66,38.8,70.7"/>
		<path fill="#3F3F3F" d="M41.3,73.2l-0.6-0.6c5.7-5.7,5.7-14.9,0-20.5l0,0l0.6-0.6C47.4,57.4,47.4,67.1,41.3,73.2"/>
		<g>
			<g>
				<defs>
					<polygon id="SVGID_6_" points="26.1,0 26.1,21.6 18.5,14 16.9,14 26.7,23.8 36.5,14 34.9,14 27.3,21.6 27.3,0 					"/>
				</defs>
				<clipPath id="SVGID_7_">
					<use xlink:href="#SVGID_6_"  overflow="visible"/>
				</clipPath>
				<g clip-path="url(#SVGID_7_)">
					
						<linearGradient id="SVGID_8_" gradientUnits="userSpaceOnUse" x1="-1627.4734" y1="1585.4904" x2="-1626.4734" y2="1585.4904" gradientTransform="matrix(19.62 0 0 -19.62 31948.9219 31119.2207)">
						<stop  offset="0" style="stop-color:#EC7D4C"/>
						<stop  offset="1.000000e-02" style="stop-color:#EC7D4C"/>
						<stop  offset="0.8" style="stop-color:#F6B744"/>
						<stop  offset="1" style="stop-color:#F8C642"/>
					</linearGradient>
					<rect x="16.9" fill="url(#SVGID_8_)" width="19.6" height="23.8"/>
				</g>
			</g>
		</g>
	</g>
</g>
</svg>
