<?xml version="1.0" encoding="utf-8"?>
<!DOCTYPE svg PUBLIC "-//W3C//DTD SVG 1.1//EN" "http://www.w3.org/Graphics/SVG/1.1/DTD/svg11.dtd">
<svg version="1.1" id="Layer_1" xmlns="http://www.w3.org/2000/svg" xmlns:xlink="http://www.w3.org/1999/xlink" x="0px" y="0px"
	 viewBox="0 0 821 1068" style="enable-background:new 0 0 821 1068;" xml:space="preserve">
<style type="text/css">
	.st0{fill:#FFFFFF;}
	.st1{fill:#A7A9AC;}
</style>
<path class="st0" d="M458.9,18.6"/>
<path class="st1" d="M458.9,18.6"/>
<polygon class="st0" points="242.2,68.6 254,71 280.9,56.7 298.9,34 313.8,24.1 324.7,24.1 365.4,0 407.8,53.6 408.2,65.2 434,99.5 
	454,101 459.8,107.3 462.5,98.5 462,79.3 472.7,74.1 474.7,67.9 488,54.7 493.1,62.8 509.7,49.2 556.6,120.2 557.2,130 574.9,160.6 
	675.5,197.9 109.2,194.1 149.1,152.5 164.4,123.9 193.3,104.9 215.2,79.7 226.9,78.4 "/>
<polygon class="st1" points="242.1,67.8 254,70.2 280.8,55.9 210.9,145.7 303,195.4 181.6,196.1 95.6,236 109.1,193.9 149.1,151.7 
	164.3,123.2 193.2,104.2 215.1,78.9 226.8,77.7 "/>
<polygon class="st1" points="399.7,160.3 365.4,0 394.4,36.7 407.8,53.6 408.2,65.2 434,99.5 "/>
<polygon class="st1" points="515.6,139.3 509.7,48.9 556.6,119.9 557.2,129.7 574.9,160.3 "/>
<polygon class="st1" points="670.2,196.6 752.9,225.6 767.3,287.1 814.4,338.7 820.8,378.6 816.2,438.3 795.4,468.2 755.6,488.1 
	772.8,585 769.2,633.9 745.6,690.1 711.2,686.4 691.3,701.8 673.1,770 649.6,777.9 632.4,803.2 628.8,825.1 589.9,872.9 
	584.5,922.7 563.6,960.8 519.4,1005.8 516.5,1015.6 488.9,1036.8 456.8,1034.4 431.4,1049.1 417.4,1043.2 399.3,1053.1 
	388.4,1047.7 372.6,1053.1 343.2,1041.8 314.8,1066 306,1060.8 303.3,1041.4 292,1029.1 264.4,1016.9 233.1,1015.1 222.3,993.4 
	200.1,957.2 190.1,946.3 187.4,920 184.3,869.8 173.4,848 163.4,786.5 160.3,754.3 150.3,739.4 129.9,727.6 103.7,731.7 94.2,735.8 
	78.3,758.4 46.2,743 37.6,741.2 27.2,719.5 10.4,706.8 0,640.7 6.3,611.3 0.1,573.3 1.8,507.6 15.8,456.4 34,418 36.2,387.2 
	46.2,370.9 49.3,347.8 67.5,337.4 73.2,310.9 79.7,309.8 77,261.3 86.8,257.7 109.2,193.9 "/>
<polygon class="st0" points="668.5,195.7 491,338.5 334.3,317.8 193.4,387.6 176.2,544 113.7,542.7 11.7,709.1 0.3,653.2 0.1,573.3 
	1.8,507.6 15.8,456.5 34,418 36.2,387.2 46.2,370.9 49.4,347.8 67.5,337.4 73.2,310.9 79.7,309.8 77,261.3 86.8,257.7 188.8,192.3 
	"/>
<polygon class="st0" points="431.7,1048.5 457,1033.9 489.2,1036.3 516.8,1015 519.7,1005.2 563.9,960.2 584.7,922.2 590.1,872.4 
	629,824.6 632.7,802.7 649.9,777.3 673.3,769.5 691.5,701.3 711.4,685.9 745.8,689.5 773,584.5 769.4,633.4 773,584.5 755.8,487.6 
	795.6,467.7 816.5,437.8 821,378.1 814.7,338.2 767.6,286.6 753.1,225 669,195.6 489.1,284.8 667.2,422.2 644.6,540.4 745.6,690.1 
	773,584.5 769.4,633.4 745.8,689.5 711.4,685.9 648.6,708.3 572.5,627.1 515.1,551.1 439.4,553.8 385.8,605.4 347,631.1 
	315.9,741.9 234.7,803.1 150.3,739.4 160.3,754.3 172,839.4 275.6,933.3 370.8,919.2 389.8,972.9 449.2,998.7 "/>
</svg>
