<?xml version="1.0" encoding="utf-8"?>
<!-- Generator: Adobe Illustrator 21.0.0, SVG Export Plug-In . SVG Version: 6.00 Build 0)  -->
<svg version="1.1" id="Layer_1" xmlns="http://www.w3.org/2000/svg" xmlns:xlink="http://www.w3.org/1999/xlink" x="0px" y="0px"
	 viewBox="0 0 170 170" style="enable-background:new 0 0 170 170;" width="170" height="170" xml:space="preserve">
<style type="text/css">
	.st0{display:none;fill:#F0BA19;}
	.st1{opacity:0.3;}
	.st2{fill:#FFFFFF;}
</style>
<rect class="st0" width="170" height="170"/>
<g class="st1">
	<path class="st2" d="M80.8,62.2c0,3.2-0.6,6.2-1.8,8.8c-1.2,2.7-2.7,4.9-4.6,6.9c-1.9,1.9-4.2,3.4-6.7,4.4c-2.6,1-5.2,1.6-8,1.6
		c-3.1,0-5.9-0.5-8.4-1.6c-2.6-1-4.8-2.5-6.6-4.4c-1.9-1.9-3.3-4.2-4.4-6.9c-1-2.7-1.6-5.6-1.6-8.8c0-3.3,0.5-6.4,1.6-9.1
		c1-2.7,2.5-5,4.4-7c1.9-1.9,4.1-3.4,6.6-4.5c2.6-1.1,5.4-1.6,8.4-1.6c3.1,0,5.9,0.5,8.5,1.6c2.6,1.1,4.8,2.6,6.7,4.5
		c1.9,1.9,3.3,4.3,4.4,7C80.2,55.8,80.8,58.9,80.8,62.2z M108.4,43.7c0.6-0.7,1.3-1.3,2.2-1.9c0.9-0.6,2.1-0.9,3.7-0.9H128
		l-66.3,85.3c-0.6,0.8-1.4,1.4-2.3,1.9c-0.9,0.5-2,0.8-3.3,0.8h-14L108.4,43.7z M66.4,62.2c0-2.1-0.2-3.8-0.5-5.1
		c-0.3-1.3-0.8-2.4-1.4-3.2c-0.6-0.8-1.3-1.4-2.1-1.7c-0.8-0.3-1.7-0.5-2.7-0.5s-1.9,0.2-2.7,0.5c-0.8,0.3-1.5,0.9-2.1,1.7
		c-0.6,0.8-1,1.9-1.3,3.2c-0.3,1.3-0.5,3-0.5,5.1c0,1.9,0.2,3.5,0.5,4.8c0.3,1.3,0.8,2.3,1.3,3.1c0.6,0.8,1.2,1.3,2.1,1.6
		c0.8,0.3,1.7,0.5,2.7,0.5s1.9-0.2,2.7-0.5c0.8-0.3,1.5-0.9,2.1-1.6c0.6-0.8,1.1-1.8,1.4-3.1C66.2,65.8,66.4,64.1,66.4,62.2z
		 M131.4,108.2c0,3.2-0.6,6.2-1.8,8.8c-1.2,2.7-2.7,5-4.6,6.9c-1.9,1.9-4.2,3.4-6.7,4.4c-2.6,1-5.2,1.6-8,1.6
		c-3.1,0-5.9-0.5-8.4-1.6c-2.6-1-4.8-2.5-6.6-4.4c-1.9-1.9-3.3-4.2-4.4-6.9c-1-2.7-1.6-5.6-1.6-8.8c0-3.3,0.5-6.4,1.6-9.1
		c1-2.7,2.5-5,4.4-7c1.9-1.9,4.1-3.4,6.6-4.5c2.6-1.1,5.4-1.6,8.4-1.6s5.9,0.5,8.5,1.6c2.6,1.1,4.8,2.6,6.7,4.5
		c1.9,1.9,3.3,4.3,4.4,7S131.4,104.9,131.4,108.2z M117,108.2c0-2-0.2-3.7-0.5-5c-0.3-1.3-0.8-2.4-1.4-3.2c-0.6-0.8-1.3-1.4-2.1-1.7
		c-0.8-0.3-1.7-0.5-2.7-0.5c-1,0-1.9,0.2-2.7,0.5c-0.8,0.3-1.5,0.9-2.1,1.7c-0.6,0.8-1,1.9-1.3,3.2c-0.3,1.3-0.5,3-0.5,5
		c0,1.9,0.2,3.5,0.5,4.8c0.3,1.3,0.8,2.3,1.3,3.1s1.2,1.3,2.1,1.6c0.8,0.3,1.7,0.5,2.7,0.5c1,0,1.9-0.2,2.7-0.5
		c0.8-0.3,1.5-0.9,2.1-1.6c0.6-0.8,1.1-1.8,1.4-3.1C116.8,111.8,117,110.1,117,108.2z"/>
</g>
</svg>
